custom-analysis
version=1
nRows=4
nColumns=98
inDegrees=no

This file contains tibia displacement and acting force.

Units are S.I. units (seconds, meters, Newtons, ...)
Angles are in degrees.

endheader
time	APT	SIT	knee_angle	aACL_R_force	pACL_R_force	aPCL_R_force	pPCL_R_force	aMCL_R_force	mMCL_R_force	pMCL_R_force	aLCL_R_force	mLCL_R_force	pLCL_R_force	aPCL_L_force	pPCL_L_force	aMCL_L_force	aLCL_L_force	aACL_R_length	pACL_R_length	aPCL_R_length	pPCL_R_length	aMCL_R_length	mMCL_R_length	pMCL_R_length	aLCL_R_length	mLCL_R_length	pLCL_R_length	aPCL_L_length	pPCL_L_length	aMCL_L_length	aLCL_L_length	aACL_R_strain	pACL_R_strain	aPCL_R_strain	pPCL_R_strain	aMCL_R_strain	mMCL_R_strain	pMCL_R_strain	aLCL_R_strain	mLCL_R_strain	pLCL_R_strain	aPCL_L_strain	pPCL_L_strain	aMCL_L_strain	aLCL_L_strain	femur_lat_meniscii_r.femur_lat_r.force.X	femur_lat_meniscii_r.femur_lat_r.force.Y	femur_lat_meniscii_r.femur_lat_r.force.Z	femur_lat_meniscii_r.femur_lat_r.torque.X	femur_lat_meniscii_r.femur_lat_r.torque.Y	femur_lat_meniscii_r.femur_lat_r.torque.Z	femur_lat_meniscii_r.meniscus_lat_r.force.X	femur_lat_meniscii_r.meniscus_lat_r.force.Y	femur_lat_meniscii_r.meniscus_lat_r.force.Z	femur_lat_meniscii_r.meniscus_lat_r.torque.X	femur_lat_meniscii_r.meniscus_lat_r.torque.Y	femur_lat_meniscii_r.meniscus_lat_r.torque.Z	femur_med_meniscii_r.femur_med_r.force.X	femur_med_meniscii_r.femur_med_r.force.Y	femur_med_meniscii_r.femur_med_r.force.Z	femur_med_meniscii_r.femur_med_r.torque.X	femur_med_meniscii_r.femur_med_r.torque.Y	femur_med_meniscii_r.femur_med_r.torque.Z	femur_med_meniscii_r.meniscus_med_r.force.X	femur_med_meniscii_r.meniscus_med_r.force.Y	femur_med_meniscii_r.meniscus_med_r.force.Z	femur_med_meniscii_r.meniscus_med_r.torque.X	femur_med_meniscii_r.meniscus_med_r.torque.Y	femur_med_meniscii_r.meniscus_med_r.torque.Z	femur_med_tibia_r.tibia_upper_r.force.X	femur_med_tibia_r.tibia_upper_r.force.Y	femur_med_tibia_r.tibia_upper_r.force.Z	femur_med_tibia_r.tibia_upper_r.torque.X	femur_med_tibia_r.tibia_upper_r.torque.Y	femur_med_tibia_r.tibia_upper_r.torque.Z	femur_med_tibia_r.femur_med_r.force.X	femur_med_tibia_r.femur_med_r.force.Y	femur_med_tibia_r.femur_med_r.force.Z	femur_med_tibia_r.femur_med_r.torque.X	femur_med_tibia_r.femur_med_r.torque.Y	femur_med_tibia_r.femur_med_r.torque.Z	femur_lat_tibia_r.tibia_upper_r.force.X	femur_lat_tibia_r.tibia_upper_r.force.Y	femur_lat_tibia_r.tibia_upper_r.force.Z	femur_lat_tibia_r.tibia_upper_r.torque.X	femur_lat_tibia_r.tibia_upper_r.torque.Y	femur_lat_tibia_r.tibia_upper_r.torque.Z	femur_lat_tibia_r.femur_lat_r.force.X	femur_lat_tibia_r.femur_lat_r.force.Y	femur_lat_tibia_r.femur_lat_r.force.Z	femur_lat_tibia_r.femur_lat_r.torque.X	femur_lat_tibia_r.femur_lat_r.torque.Y	femur_lat_tibia_r.femur_lat_r.torque.Z	femur_lat_meniscii_force_r	femur_med_meniscii_force_r	femur_lat_tibia_force_r	femur_med_tibia_force_r
      0.16291251	      0.01274210	      0.01695684	     56.00080328	     -2.78712803	      0.00000000	    561.58140720	    367.10878249	      0.00000000	      0.00000000	      0.00000000	      0.00000000	      0.00000000	      0.00000000	      0.00000000	      0.00000000	      0.00000001	      0.00000000	      0.03124076	      0.02395222	      0.03485326	      0.03237637	      0.05945050	      0.05918954	      0.05632976	      0.05261007	      0.04792126	      0.04306339	      0.01525851	      0.01651186	      0.06550154	      0.04489616	      0.00758766	     -0.04415564	      0.12085286	      0.08326367	     -0.00960397	     -0.01010081	     -0.04083638	     -0.06015182	     -0.14910423	     -0.17727985	      0.00000079	     -0.32847694	      0.00000060	     -0.00000086	    101.10712838	    187.77218708	     21.97974805	    -13.39032301	      2.45252927	     39.49818618	   -101.10712838	   -187.77218708	    -21.97974805	      5.18791914	     -3.04975770	      3.33507953	     24.09223068	     23.03530463	     12.74451187	     -4.61397332	     -0.55155824	      9.67343716	    -24.09223068	    -23.03530463	    -12.74451187	     -0.27096695	      0.25713951	      0.09320861	   -736.34368826	   -695.29473170	    219.01341318	    -16.08669093	     16.64415298	     -1.22428319	    736.34368826	    695.29473170	   -219.01341318	    101.67303722	    -13.31257417	    299.55028128	      0.00000000	      0.00000000	      0.00000000	      0.00000000	      0.00000000	      0.00000000	      0.00000000	      0.00000000	      0.00000000	      0.00000000	      0.00000000	      0.00000000	    214.39252546	     35.68589948	      0.00000000	   1036.14847697
      0.16342619	      0.01277700	      0.01705467	     56.27725826	     -2.73593324	      0.00000000	    566.82631957	    369.48691168	      0.00000000	      0.00000000	      0.00000000	      0.00000000	      0.00000000	      0.00000000	      0.00000000	      0.00000000	      0.00000001	      0.00000000	      0.03123659	      0.02395027	      0.03488411	      0.03239403	      0.05947650	      0.05919429	      0.05632025	      0.05259388	      0.04789269	      0.04302767	      0.01525851	      0.01651186	      0.06550154	      0.04489616	      0.00745322	     -0.04423342	      0.12184511	      0.08385466	     -0.00917083	     -0.01002141	     -0.04099825	     -0.06044109	     -0.14961142	     -0.17796234	      0.00000079	     -0.32847694	      0.00000060	     -0.00000086	    101.72676987	    188.48670839	     22.58811086	    -13.66548472	      2.46912400	     39.72661481	   -101.72676987	   -188.48670839	    -22.58811086	      5.22887307	     -3.08245465	      3.38606211	     24.48383700	     22.98043309	     12.49693878	     -4.51444191	     -0.55882113	      9.82649973	    -24.48383700	    -22.98043309	    -12.49693878	     -0.27580100	      0.26746785	      0.09424593	   -742.31313446	   -693.06951600	    221.14964745	    -16.06499238	     16.80550960	     -1.24051169	    742.31313446	    693.06951600	   -221.14964745	    102.49383487	    -13.42330990	    301.94804280	      0.00000000	      0.00000000	      0.00000000	      0.00000000	      0.00000000	      0.00000000	      0.00000000	      0.00000000	      0.00000000	      0.00000000	      0.00000000	      0.00000000	    215.37362350	     35.82920678	      0.00000000	   1039.36582114
      0.16375981	      0.01279947	      0.01711832	     56.45684464	     -2.71117348	      0.00000000	    570.21461775	    371.04739173	      0.00000000	      0.00000000	      0.00000000	      0.00000000	      0.00000000	      0.00000000	      0.00000000	      0.00000000	      0.00000001	      0.00000000	      0.03123392	      0.02394908	      0.03490400	      0.03240542	      0.05949335	      0.05919739	      0.05631420	      0.05258314	      0.04787397	      0.04300436	      0.01525851	      0.01651186	      0.06550154	      0.04489616	      0.00736724	     -0.04428079	      0.12248466	      0.08423555	     -0.00889021	     -0.00996942	     -0.04110141	     -0.06063291	     -0.14994388	     -0.17840771	      0.00000079	     -0.32847694	      0.00000060	     -0.00000086	    102.18194125	    189.04887652	     22.86185790	    -13.79338572	      2.47984481	     39.89591118	   -102.18194125	   -189.04887652	    -22.86185790	      5.25163941	     -3.10130735	      3.42073525	     24.24461635	     22.57170152	     12.29723033	     -4.44428864	     -0.55082659	      9.72698557	    -24.24461635	    -22.57170152	    -12.29723033	     -0.26997092	      0.26302784	      0.09567520	   -746.14431385	   -691.87846209	    220.90693959	    -16.00954655	     16.86450749	     -1.24300800	    746.14431385	    691.87846209	   -220.90693959	    102.35677836	    -13.48255571	    303.48519082	      0.00000000	      0.00000000	      0.00000000	      0.00000000	      0.00000000	      0.00000000	      0.00000000	      0.00000000	      0.00000000	      0.00000000	      0.00000000	      0.00000000	    216.10944306	     35.33419032	      0.00000000	   1041.26222411
      0.16409344	      0.01282177	      0.01718207	     56.63644981	     -2.69601948	      0.00000000	    573.56622475	    372.56575406	      0.00000000	      0.00000000	      0.00000000	      0.00000000	      0.00000000	      0.00000000	      0.00000000	      0.00000000	      0.00000001	      0.00000000	      0.03123129	      0.02394796	      0.03492376	      0.03241672	      0.05951015	      0.05920051	      0.05630822	      0.05257221	      0.04785509	      0.04298094	      0.01525851	      0.01651186	      0.06550154	      0.04489616	      0.00728221	     -0.04432563	      0.12312008	      0.08461388	     -0.00861037	     -0.00991729	     -0.04120320	     -0.06082816	     -0.15027906	     -0.17885507	      0.00000079	     -0.32847694	      0.00000060	     -0.00000086	    102.56779384	    189.61194110	     22.99114237	    -13.86519355	      2.48815804	     40.03638089	   -102.56779384	   -189.61194110	    -22.99114237	      5.27409445	     -3.11473423	      3.45760444	     24.51928050	     22.48495339	     12.10441496	     -4.36866199	     -0.55623452	      9.83504157	    -24.51928050	    -22.48495339	    -12.10441496	     -0.27177217	      0.27109496	      0.09451362	   -749.64451568	   -690.06177826	    221.90362761	    -15.98369691	     16.95381245	     -1.25500151	    749.64451568	    690.06177826	   -221.90362761	    102.72708878	    -13.54637660	    304.89153936	      0.00000000	      0.00000000	      0.00000000	      0.00000000	      0.00000000	      0.00000000	      0.00000000	      0.00000000	      0.00000000	      0.00000000	      0.00000000	      0.00000000	    216.79813922	     35.40176700	      0.00000000	   1042.78155797
